# xmcd
#
# Track frame offsets: 
#        150
#        20906
#        35639
#        50149
#        64389
#        75682
#        91397
#        106950
#        122701
#        136746
#
# Disc length: 2068 seconds
#
# Revision: 0
# Processed by: cddbd v1.5.1PL2 Copyright (c) Steve Scherf et al.
# Submitted via: ExactAudioCopy v0.95a4
#
DISCID=8d08120a
DTITLE=Bahamas - Busiowe Spiewanie
DYEAR=1900
DGENRE=Other
TTITLE0=Hop, hop mix
TTITLE1=Bia³y s³onik
TTITLE2=Palcem po mapie
TTITLE3=Obracaæ siê na piêcie
TTITLE4=No to co, ¿e mam piegi
TTITLE5=Aligator
TTITLE6=Taki ktos
TTITLE7=Wyliczanka
TTITLE8=Kacaraba (mix)
TTITLE9=Busiowe spiewanie (mix)
EXTD=
EXTT0=
EXTT1=
EXTT2=
EXTT3=
EXTT4=
EXTT5=
EXTT6=
EXTT7=
EXTT8=
EXTT9=
PLAYORDER=
